<mxfile host="app.diagrams.net" modified="2022-07-29T10:31:21.417Z" agent="5.0 (Macintosh; Intel Mac OS X 10_15_7) AppleWebKit/537.36 (KHTML, like Gecko) Chrome/103.0.0.0 Safari/537.36" etag="Ku4wEfMNQBkZQrtFP1fu" version="20.1.4" type="github">
  <diagram id="AHyrQahumLeJaGsGfZ6V" name="第 1 页">
    <mxGraphModel dx="1892" dy="1126" grid="1" gridSize="10" guides="1" tooltips="1" connect="1" arrows="1" fold="1" page="1" pageScale="1" pageWidth="3300" pageHeight="4681" math="0" shadow="0">
      <root>
        <mxCell id="0" />
        <mxCell id="1" parent="0" />
        <mxCell id="VKJtCPSJfIN4YJTSpujl-1" value="vie_channal.cc" style="shape=umlLifeline;perimeter=lifelinePerimeter;whiteSpace=wrap;html=1;container=1;collapsible=0;recursiveResize=0;outlineConnect=0;" vertex="1" parent="1">
          <mxGeometry x="730" y="540" width="100" height="720" as="geometry" />
        </mxCell>
        <mxCell id="VKJtCPSJfIN4YJTSpujl-3" value="" style="html=1;points=[];perimeter=orthogonalPerimeter;" vertex="1" parent="VKJtCPSJfIN4YJTSpujl-1">
          <mxGeometry x="45" y="170" width="10" height="70" as="geometry" />
        </mxCell>
        <mxCell id="VKJtCPSJfIN4YJTSpujl-12" value="" style="html=1;points=[];perimeter=orthogonalPerimeter;" vertex="1" parent="VKJtCPSJfIN4YJTSpujl-1">
          <mxGeometry x="45" y="280" width="10" height="70" as="geometry" />
        </mxCell>
        <mxCell id="VKJtCPSJfIN4YJTSpujl-32" value="" style="html=1;points=[];perimeter=orthogonalPerimeter;" vertex="1" parent="VKJtCPSJfIN4YJTSpujl-1">
          <mxGeometry x="45" y="370" width="10" height="70" as="geometry" />
        </mxCell>
        <mxCell id="VKJtCPSJfIN4YJTSpujl-17" style="edgeStyle=orthogonalEdgeStyle;rounded=0;orthogonalLoop=1;jettySize=auto;html=1;" edge="1" parent="VKJtCPSJfIN4YJTSpujl-1">
          <mxGeometry relative="1" as="geometry">
            <mxPoint x="48" y="314.5" as="sourcePoint" />
            <mxPoint x="-157" y="314.5" as="targetPoint" />
          </mxGeometry>
        </mxCell>
        <mxCell id="VKJtCPSJfIN4YJTSpujl-53" value="" style="html=1;points=[];perimeter=orthogonalPerimeter;" vertex="1" parent="VKJtCPSJfIN4YJTSpujl-1">
          <mxGeometry x="45" y="70" width="10" height="70" as="geometry" />
        </mxCell>
        <mxCell id="VKJtCPSJfIN4YJTSpujl-66" value="" style="html=1;points=[];perimeter=orthogonalPerimeter;" vertex="1" parent="VKJtCPSJfIN4YJTSpujl-1">
          <mxGeometry x="45" y="480" width="10" height="70" as="geometry" />
        </mxCell>
        <mxCell id="VKJtCPSJfIN4YJTSpujl-74" value="" style="html=1;points=[];perimeter=orthogonalPerimeter;" vertex="1" parent="VKJtCPSJfIN4YJTSpujl-1">
          <mxGeometry x="45" y="570" width="10" height="70" as="geometry" />
        </mxCell>
        <mxCell id="VKJtCPSJfIN4YJTSpujl-79" value="" style="html=1;points=[];perimeter=orthogonalPerimeter;" vertex="1" parent="VKJtCPSJfIN4YJTSpujl-1">
          <mxGeometry x="45" y="650" width="10" height="70" as="geometry" />
        </mxCell>
        <mxCell id="VKJtCPSJfIN4YJTSpujl-9" style="edgeStyle=orthogonalEdgeStyle;rounded=0;orthogonalLoop=1;jettySize=auto;html=1;entryX=-0.25;entryY=0.5;entryDx=0;entryDy=0;entryPerimeter=0;" edge="1" parent="1">
          <mxGeometry relative="1" as="geometry">
            <mxPoint x="770" y="745" as="sourcePoint" />
            <mxPoint x="574.5" y="745" as="targetPoint" />
          </mxGeometry>
        </mxCell>
        <mxCell id="VKJtCPSJfIN4YJTSpujl-4" value="createEncoderQueue" style="text;html=1;align=center;verticalAlign=middle;resizable=0;points=[];autosize=1;strokeColor=none;fillColor=none;" vertex="1" parent="1">
          <mxGeometry x="625" y="710" width="140" height="30" as="geometry" />
        </mxCell>
        <mxCell id="VKJtCPSJfIN4YJTSpujl-5" value="task_queue.cc" style="shape=umlLifeline;perimeter=lifelinePerimeter;whiteSpace=wrap;html=1;container=1;collapsible=0;recursiveResize=0;outlineConnect=0;" vertex="1" parent="1">
          <mxGeometry x="520" y="540" width="100" height="710" as="geometry" />
        </mxCell>
        <mxCell id="VKJtCPSJfIN4YJTSpujl-6" value="" style="html=1;points=[];perimeter=orthogonalPerimeter;" vertex="1" parent="VKJtCPSJfIN4YJTSpujl-5">
          <mxGeometry x="45" y="170" width="10" height="70" as="geometry" />
        </mxCell>
        <mxCell id="VKJtCPSJfIN4YJTSpujl-16" value="" style="html=1;points=[];perimeter=orthogonalPerimeter;" vertex="1" parent="VKJtCPSJfIN4YJTSpujl-5">
          <mxGeometry x="45" y="280" width="10" height="70" as="geometry" />
        </mxCell>
        <mxCell id="VKJtCPSJfIN4YJTSpujl-7" value="task_queue_gcd.cc" style="shape=umlLifeline;perimeter=lifelinePerimeter;whiteSpace=wrap;html=1;container=1;collapsible=0;recursiveResize=0;outlineConnect=0;" vertex="1" parent="1">
          <mxGeometry x="300" y="540" width="120" height="710" as="geometry" />
        </mxCell>
        <mxCell id="VKJtCPSJfIN4YJTSpujl-8" value="" style="html=1;points=[];perimeter=orthogonalPerimeter;" vertex="1" parent="VKJtCPSJfIN4YJTSpujl-7">
          <mxGeometry x="55" y="280" width="10" height="70" as="geometry" />
        </mxCell>
        <mxCell id="VKJtCPSJfIN4YJTSpujl-24" value="" style="html=1;points=[];perimeter=orthogonalPerimeter;" vertex="1" parent="VKJtCPSJfIN4YJTSpujl-7">
          <mxGeometry x="55" y="170" width="10" height="70" as="geometry" />
        </mxCell>
        <mxCell id="VKJtCPSJfIN4YJTSpujl-30" value="" style="html=1;points=[];perimeter=orthogonalPerimeter;" vertex="1" parent="VKJtCPSJfIN4YJTSpujl-7">
          <mxGeometry x="55" y="390" width="10" height="40" as="geometry" />
        </mxCell>
        <mxCell id="VKJtCPSJfIN4YJTSpujl-31" value="队列执行" style="edgeStyle=orthogonalEdgeStyle;html=1;align=left;spacingLeft=2;endArrow=block;rounded=0;entryX=1;entryY=0;" edge="1" target="VKJtCPSJfIN4YJTSpujl-30" parent="VKJtCPSJfIN4YJTSpujl-7">
          <mxGeometry relative="1" as="geometry">
            <mxPoint x="60" y="370" as="sourcePoint" />
            <Array as="points">
              <mxPoint x="90" y="370" />
            </Array>
          </mxGeometry>
        </mxCell>
        <mxCell id="VKJtCPSJfIN4YJTSpujl-19" value="postTask" style="text;html=1;align=center;verticalAlign=middle;resizable=0;points=[];autosize=1;strokeColor=none;fillColor=none;" vertex="1" parent="VKJtCPSJfIN4YJTSpujl-7">
          <mxGeometry x="-20" y="300" width="70" height="30" as="geometry" />
        </mxCell>
        <mxCell id="VKJtCPSJfIN4YJTSpujl-18" style="edgeStyle=orthogonalEdgeStyle;rounded=0;orthogonalLoop=1;jettySize=auto;html=1;" edge="1" parent="1">
          <mxGeometry relative="1" as="geometry">
            <mxPoint x="563" y="855" as="sourcePoint" />
            <mxPoint x="368" y="855" as="targetPoint" />
          </mxGeometry>
        </mxCell>
        <mxCell id="VKJtCPSJfIN4YJTSpujl-25" style="edgeStyle=orthogonalEdgeStyle;rounded=0;orthogonalLoop=1;jettySize=auto;html=1;entryX=1.25;entryY=0.5;entryDx=0;entryDy=0;entryPerimeter=0;" edge="1" parent="1" source="VKJtCPSJfIN4YJTSpujl-6" target="VKJtCPSJfIN4YJTSpujl-24">
          <mxGeometry relative="1" as="geometry" />
        </mxCell>
        <mxCell id="VKJtCPSJfIN4YJTSpujl-26" value="GCD API ：http://t.zoukankan.com/mengfanrong-p-4866500.html" style="text;html=1;align=center;verticalAlign=middle;resizable=0;points=[];autosize=1;strokeColor=none;fillColor=none;" vertex="1" parent="1">
          <mxGeometry x="160" y="480" width="370" height="30" as="geometry" />
        </mxCell>
        <mxCell id="VKJtCPSJfIN4YJTSpujl-28" value="提交任务到队列" style="text;html=1;align=center;verticalAlign=middle;resizable=0;points=[];autosize=1;strokeColor=none;fillColor=none;" vertex="1" parent="1">
          <mxGeometry x="405" y="820" width="110" height="30" as="geometry" />
        </mxCell>
        <mxCell id="VKJtCPSJfIN4YJTSpujl-33" style="edgeStyle=orthogonalEdgeStyle;rounded=0;orthogonalLoop=1;jettySize=auto;html=1;" edge="1" parent="1" source="VKJtCPSJfIN4YJTSpujl-30">
          <mxGeometry relative="1" as="geometry">
            <mxPoint x="770" y="950" as="targetPoint" />
          </mxGeometry>
        </mxCell>
        <mxCell id="VKJtCPSJfIN4YJTSpujl-34" value="ProcessAndEncoderVideoTask::Run()" style="text;html=1;align=center;verticalAlign=middle;resizable=0;points=[];autosize=1;strokeColor=none;fillColor=none;" vertex="1" parent="1">
          <mxGeometry x="560" y="920" width="220" height="30" as="geometry" />
        </mxCell>
        <mxCell id="VKJtCPSJfIN4YJTSpujl-40" value="video_processing.cc" style="shape=umlLifeline;perimeter=lifelinePerimeter;whiteSpace=wrap;html=1;container=1;collapsible=0;recursiveResize=0;outlineConnect=0;" vertex="1" parent="1">
          <mxGeometry x="900" y="540" width="120" height="710" as="geometry" />
        </mxCell>
        <mxCell id="VKJtCPSJfIN4YJTSpujl-41" value="" style="html=1;points=[];perimeter=orthogonalPerimeter;" vertex="1" parent="VKJtCPSJfIN4YJTSpujl-40">
          <mxGeometry x="55" y="370" width="10" height="70" as="geometry" />
        </mxCell>
        <mxCell id="VKJtCPSJfIN4YJTSpujl-47" value="做图像处理" style="text;html=1;align=center;verticalAlign=middle;resizable=0;points=[];autosize=1;strokeColor=none;fillColor=none;" vertex="1" parent="VKJtCPSJfIN4YJTSpujl-40">
          <mxGeometry x="70" y="390" width="80" height="30" as="geometry" />
        </mxCell>
        <mxCell id="VKJtCPSJfIN4YJTSpujl-15" value="ProcessAndEncodeVideo" style="text;html=1;align=center;verticalAlign=middle;resizable=0;points=[];autosize=1;strokeColor=none;fillColor=none;" vertex="1" parent="1">
          <mxGeometry x="615" y="820" width="160" height="30" as="geometry" />
        </mxCell>
        <UserObject label="创建同步任务队列&lt;br&gt;Mac 上为 GCD 库创建" id="VKJtCPSJfIN4YJTSpujl-21">
          <mxCell style="text;html=1;align=center;verticalAlign=middle;resizable=0;points=[];autosize=1;strokeColor=none;fillColor=none;" vertex="1" parent="1">
            <mxGeometry x="210" y="730" width="140" height="40" as="geometry" />
          </mxCell>
        </UserObject>
        <mxCell id="VKJtCPSJfIN4YJTSpujl-43" value="callback" style="text;html=1;align=center;verticalAlign=middle;resizable=0;points=[];autosize=1;strokeColor=none;fillColor=none;" vertex="1" parent="1">
          <mxGeometry x="445" y="925" width="70" height="30" as="geometry" />
        </mxCell>
        <mxCell id="VKJtCPSJfIN4YJTSpujl-45" style="edgeStyle=orthogonalEdgeStyle;rounded=0;orthogonalLoop=1;jettySize=auto;html=1;entryX=-0.35;entryY=0.5;entryDx=0;entryDy=0;entryPerimeter=0;" edge="1" parent="1" source="VKJtCPSJfIN4YJTSpujl-32" target="VKJtCPSJfIN4YJTSpujl-41">
          <mxGeometry relative="1" as="geometry" />
        </mxCell>
        <mxCell id="VKJtCPSJfIN4YJTSpujl-46" value="PreProcessFrame" style="text;html=1;align=center;verticalAlign=middle;resizable=0;points=[];autosize=1;strokeColor=none;fillColor=none;" vertex="1" parent="1">
          <mxGeometry x="820" y="910" width="120" height="30" as="geometry" />
        </mxCell>
        <mxCell id="VKJtCPSJfIN4YJTSpujl-48" value="encoder_database.cc" style="shape=umlLifeline;perimeter=lifelinePerimeter;whiteSpace=wrap;html=1;container=1;collapsible=0;recursiveResize=0;outlineConnect=0;" vertex="1" parent="1">
          <mxGeometry x="1100" y="540" width="130" height="710" as="geometry" />
        </mxCell>
        <mxCell id="VKJtCPSJfIN4YJTSpujl-55" value="" style="html=1;points=[];perimeter=orthogonalPerimeter;" vertex="1" parent="VKJtCPSJfIN4YJTSpujl-48">
          <mxGeometry x="60" y="70" width="10" height="70" as="geometry" />
        </mxCell>
        <mxCell id="VKJtCPSJfIN4YJTSpujl-51" value="generice_encoder.cc" style="shape=umlLifeline;perimeter=lifelinePerimeter;whiteSpace=wrap;html=1;container=1;collapsible=0;recursiveResize=0;outlineConnect=0;" vertex="1" parent="1">
          <mxGeometry x="1300" y="540" width="130" height="710" as="geometry" />
        </mxCell>
        <mxCell id="VKJtCPSJfIN4YJTSpujl-56" value="" style="html=1;points=[];perimeter=orthogonalPerimeter;" vertex="1" parent="VKJtCPSJfIN4YJTSpujl-51">
          <mxGeometry x="60" y="65" width="10" height="70" as="geometry" />
        </mxCell>
        <mxCell id="VKJtCPSJfIN4YJTSpujl-67" value="" style="html=1;points=[];perimeter=orthogonalPerimeter;" vertex="1" parent="VKJtCPSJfIN4YJTSpujl-51">
          <mxGeometry x="60" y="480" width="10" height="70" as="geometry" />
        </mxCell>
        <mxCell id="VKJtCPSJfIN4YJTSpujl-54" value="setSendCodec" style="text;html=1;align=center;verticalAlign=middle;resizable=0;points=[];autosize=1;strokeColor=none;fillColor=none;" vertex="1" parent="1">
          <mxGeometry x="670" y="625" width="100" height="30" as="geometry" />
        </mxCell>
        <mxCell id="VKJtCPSJfIN4YJTSpujl-57" style="edgeStyle=orthogonalEdgeStyle;rounded=0;orthogonalLoop=1;jettySize=auto;html=1;entryX=-0.45;entryY=0.5;entryDx=0;entryDy=0;entryPerimeter=0;" edge="1" parent="1" source="VKJtCPSJfIN4YJTSpujl-53" target="VKJtCPSJfIN4YJTSpujl-55">
          <mxGeometry relative="1" as="geometry" />
        </mxCell>
        <mxCell id="VKJtCPSJfIN4YJTSpujl-58" value="根据编码类型创建编码器" style="text;html=1;align=center;verticalAlign=middle;resizable=0;points=[];autosize=1;strokeColor=none;fillColor=none;" vertex="1" parent="1">
          <mxGeometry x="1011" y="615" width="160" height="30" as="geometry" />
        </mxCell>
        <mxCell id="VKJtCPSJfIN4YJTSpujl-59" style="edgeStyle=orthogonalEdgeStyle;rounded=0;orthogonalLoop=1;jettySize=auto;html=1;entryX=-0.05;entryY=0.571;entryDx=0;entryDy=0;entryPerimeter=0;" edge="1" parent="1" source="VKJtCPSJfIN4YJTSpujl-55" target="VKJtCPSJfIN4YJTSpujl-56">
          <mxGeometry relative="1" as="geometry" />
        </mxCell>
        <mxCell id="VKJtCPSJfIN4YJTSpujl-60" value="SVC/H264Encoder.cc" style="shape=umlLifeline;perimeter=lifelinePerimeter;whiteSpace=wrap;html=1;container=1;collapsible=0;recursiveResize=0;outlineConnect=0;" vertex="1" parent="1">
          <mxGeometry x="1500" y="540" width="130" height="710" as="geometry" />
        </mxCell>
        <mxCell id="VKJtCPSJfIN4YJTSpujl-61" value="" style="html=1;points=[];perimeter=orthogonalPerimeter;" vertex="1" parent="VKJtCPSJfIN4YJTSpujl-60">
          <mxGeometry x="60" y="65" width="10" height="70" as="geometry" />
        </mxCell>
        <mxCell id="VKJtCPSJfIN4YJTSpujl-65" value="" style="html=1;points=[];perimeter=orthogonalPerimeter;" vertex="1" parent="VKJtCPSJfIN4YJTSpujl-60">
          <mxGeometry x="60" y="480" width="10" height="150" as="geometry" />
        </mxCell>
        <mxCell id="VKJtCPSJfIN4YJTSpujl-62" style="edgeStyle=orthogonalEdgeStyle;rounded=0;orthogonalLoop=1;jettySize=auto;html=1;entryX=-0.25;entryY=0.5;entryDx=0;entryDy=0;entryPerimeter=0;" edge="1" parent="1" source="VKJtCPSJfIN4YJTSpujl-56" target="VKJtCPSJfIN4YJTSpujl-61">
          <mxGeometry relative="1" as="geometry" />
        </mxCell>
        <mxCell id="VKJtCPSJfIN4YJTSpujl-63" value="CreateAndInitEncoder" style="text;html=1;align=center;verticalAlign=middle;resizable=0;points=[];autosize=1;strokeColor=none;fillColor=none;" vertex="1" parent="1">
          <mxGeometry x="1380" y="605" width="140" height="30" as="geometry" />
        </mxCell>
        <mxCell id="VKJtCPSJfIN4YJTSpujl-64" value="RegisterComplateCallback" style="text;html=1;align=center;verticalAlign=middle;resizable=0;points=[];autosize=1;strokeColor=none;fillColor=none;" vertex="1" parent="1">
          <mxGeometry x="1365" y="650" width="170" height="30" as="geometry" />
        </mxCell>
        <mxCell id="VKJtCPSJfIN4YJTSpujl-68" style="edgeStyle=orthogonalEdgeStyle;rounded=0;orthogonalLoop=1;jettySize=auto;html=1;entryX=-0.367;entryY=0.5;entryDx=0;entryDy=0;entryPerimeter=0;" edge="1" parent="1" source="VKJtCPSJfIN4YJTSpujl-66" target="VKJtCPSJfIN4YJTSpujl-67">
          <mxGeometry relative="1" as="geometry" />
        </mxCell>
        <mxCell id="VKJtCPSJfIN4YJTSpujl-69" style="edgeStyle=orthogonalEdgeStyle;rounded=0;orthogonalLoop=1;jettySize=auto;html=1;entryX=-0.367;entryY=0.233;entryDx=0;entryDy=0;entryPerimeter=0;" edge="1" parent="1" source="VKJtCPSJfIN4YJTSpujl-67" target="VKJtCPSJfIN4YJTSpujl-65">
          <mxGeometry relative="1" as="geometry" />
        </mxCell>
        <mxCell id="VKJtCPSJfIN4YJTSpujl-70" value="Encode" style="text;html=1;align=center;verticalAlign=middle;resizable=0;points=[];autosize=1;strokeColor=none;fillColor=none;" vertex="1" parent="1">
          <mxGeometry x="850" y="1015" width="60" height="30" as="geometry" />
        </mxCell>
        <mxCell id="VKJtCPSJfIN4YJTSpujl-71" value="Encode_iml" style="text;html=1;align=center;verticalAlign=middle;resizable=0;points=[];autosize=1;strokeColor=none;fillColor=none;" vertex="1" parent="1">
          <mxGeometry x="1405" y="1015" width="90" height="30" as="geometry" />
        </mxCell>
        <mxCell id="VKJtCPSJfIN4YJTSpujl-72" value="encode" style="text;html=1;align=center;verticalAlign=middle;resizable=0;points=[];autosize=1;strokeColor=none;fillColor=none;" vertex="1" parent="1">
          <mxGeometry x="1570" y="1035" width="60" height="30" as="geometry" />
        </mxCell>
        <mxCell id="VKJtCPSJfIN4YJTSpujl-76" style="edgeStyle=orthogonalEdgeStyle;rounded=0;orthogonalLoop=1;jettySize=auto;html=1;entryX=1.067;entryY=0.548;entryDx=0;entryDy=0;entryPerimeter=0;exitX=-0.367;exitY=0.856;exitDx=0;exitDy=0;exitPerimeter=0;" edge="1" parent="1" source="VKJtCPSJfIN4YJTSpujl-65" target="VKJtCPSJfIN4YJTSpujl-74">
          <mxGeometry relative="1" as="geometry" />
        </mxCell>
        <mxCell id="VKJtCPSJfIN4YJTSpujl-77" value="EncoderComplateCallback" style="text;html=1;align=center;verticalAlign=middle;resizable=0;points=[];autosize=1;strokeColor=none;fillColor=none;" vertex="1" parent="1">
          <mxGeometry x="1365" y="1115" width="170" height="30" as="geometry" />
        </mxCell>
        <mxCell id="VKJtCPSJfIN4YJTSpujl-78" value="OnEncodeImage" style="text;html=1;align=center;verticalAlign=middle;resizable=0;points=[];autosize=1;strokeColor=none;fillColor=none;" vertex="1" parent="1">
          <mxGeometry x="670" y="1130" width="110" height="30" as="geometry" />
        </mxCell>
        <mxCell id="VKJtCPSJfIN4YJTSpujl-82" value="SendRTP" style="text;html=1;align=center;verticalAlign=middle;resizable=0;points=[];autosize=1;strokeColor=none;fillColor=none;" vertex="1" parent="1">
          <mxGeometry x="690" y="1205" width="80" height="30" as="geometry" />
        </mxCell>
      </root>
    </mxGraphModel>
  </diagram>
</mxfile>
